<svg id="Capa_1" enable-background="new 0 0 512 512" height="512" viewBox="0 0 512 512" width="512" xmlns="http://www.w3.org/2000/svg"><g><path d="m236 40h40v422h-40z" fill="#ced3dd" transform="matrix(-1 0 0 -1 512 502)"/><path d="m236 402h40v160h-40z" fill="#98eaf9" transform="matrix(0 -1 1 0 -226 738)"/><path d="m296 422 40 40h-160l40-40z" fill="#98eaf9"/><path d="m466 141c-16.569 0-30-13.431-30-30 0 22.091-17.909 40-40 40s-40-17.909-40-40c0 16.569-13.431 30-30 30s-30-13.431-30-30c0 22.091-17.909 40-40 40s-40-17.909-40-40c0 16.569-13.431 30-30 30s-30-13.431-30-30c0 22.091-17.909 40-40 40s-40-17.909-40-40c0 16.569-13.431 30-30 30s-30-13.431-30-30c0-29 30-61 30-61h420s30 32 30 61c0 16.569-13.431 30-30 30z" fill="#b7eabc"/><path d="m76 10h360l30 40h-420z" fill="#98eaf9"/><path d="m127.396 306.524h60v50h-60z" fill="#ff7d95" transform="matrix(.994 .11 -.11 .994 37.53 -15.339)"/><path d="m426.569 299.171h60v50h-60z" fill="#ff7d95" transform="matrix(-.966 .258 -.258 -.966 981.273 519.692)"/><g><circle cx="276" cy="207" r="10"/><path d="m488.773 289.705c-1.424-5.336-6.905-8.509-12.24-7.084l-19.324 5.156-35.7-133.809c6.34-3.779 11.79-8.903 15.919-15 7.266 7.42 17.39 12.032 28.572 12.032 22.056 0 40-17.944 40-40 0-38-62-107-62-107-1.889-2.518-4.853-4-8-4h-360c-3.147 0-6.111 1.482-8 4 0 0-62 71-62 106 0 22.056 17.944 41 40 41 11.182 0 21.306-4.612 28.572-12.033 4.13 6.098 9.58 11.223 15.922 15.002l-51.157 192.05c-.686 2.576-.315 5.32 1.031 7.622 1.346 2.301 3.555 3.97 6.137 4.636 0 0 30.648 7.786 31.475 7.786 4.452 0 8.514-2.996 9.677-7.507 1.378-5.348-1.84-10.801-7.188-12.179l-19.21-4.951 48.176-180.861c2.15.283 4.34.436 6.566.436 17.218 0 32.431-8.748 41.428-22.033 2.967 3.031 6.417 5.584 10.215 7.555l-16.326 149.113-19.878-2.206c-5.49-.606-10.433 3.347-11.042 8.836l-5.515 49.695c-.609 5.489 3.347 10.433 8.836 11.042 0 0 60.38 6.68 60.749 6.68 5.028 0 9.359-3.784 9.927-8.898l5.515-49.695c.609-5.489-3.347-10.433-8.836-11.042l-19.878-2.206 16.259-146.882c10.602-.382 20.169-4.895 27.117-11.992 3.117 4.603 6.994 8.643 11.428 11.982v261.05h-10c-2.652 0-5.196 1.054-7.071 2.929l-40 40c-.001.001-.001.002-.002.003-1.809 1.809-2.927 4.308-2.927 7.068v40c0 5.523 4.477 10 10 10h160c5.523 0 10-4.477 10-10v-40c0-2.76-1.119-5.26-2.927-7.069-.001-.001-.001-.001-.002-.002l-40-40c-1.875-1.875-4.419-2.929-7.071-2.929h-10v-160c0-5.51-4.49-10-10-10s-10 4.49-10 10v160h-20v-252.019c3.234.659 6.575 1.019 10 1.019s6.766-.36 10-1.019v2.019c0 5.51 4.49 10 10 10s10-4.49 10-10v-11.052c4.434-3.338 8.311-7.379 11.428-11.982 6.898 7.046 16.378 11.54 26.887 11.979l21.776 197.707-19.092 1.042c-5.515.301-9.741 5.016-9.439 10.531.291 5.329 4.703 9.455 9.976 9.455.184 0 .369-.005.554-.015l29.634-1.618c2.742-.15 5.302-1.421 7.079-3.515s2.615-4.826 2.317-7.556l-23.158-210.252c3.955-1.997 7.541-4.623 10.611-7.759 8.996 13.287 24.209 22.035 41.427 22.035 2.227 0 4.419-.153 6.57-.436l35.316 132.368-19.324 5.156c-2.562.684-4.749 2.357-6.077 4.653s-1.691 5.024-1.007 7.587l12.889 48.31c1.193 4.473 5.236 7.425 9.656 7.425.853 0 60.556-15.807 60.556-15.807 2.562-.684 4.749-2.357 6.077-4.653s1.691-5.024 1.007-7.587zm-407.773-269.705h350l15 20h-380zm87.519 126.973c-.027.052-.046.028-.061-.032.021.01.041.022.061.032zm10.41 171.849-3.309 29.817-39.756-4.412 3.309-29.817zm8.402-167.856c.004 0 .007 0 .01-.001-.004.017-.008.021-.01.001zm138.669 341.034h-140v-20h140zm-34.142-60 20 20h-111.716l20-20zm104.142-291c-16.542 0-30-13.458-30-30 0-5.523-4.477-10-10-10s-10 4.477-10 10c0 11.028-8.972 20-20 20s-20-8.972-20-20c0-5.523-4.477-10-10-10s-10 4.477-10 10c0 16.542-13.458 30-30 30s-30-13.458-30-30c0-5.523-4.477-10-10-10s-10 4.477-10 10c0 11.028-8.972 20-20 20s-20-8.972-20-20c0-5.523-4.477-10-10-10s-10 4.477-10 10c0 16.542-13.458 30-30 30s-30-13.458-30-30c0-5.523-4.477-10-10-10s-10 4.477-10 10c0 11.028-8.972 20-20 20s-20-8.972-20-20c0-18.273 15.736-40.647 24.499-51h411.011c8.767 10.327 24.49 32.646 24.49 51 0 11.028-8.972 20-20 20s-20-8.972-20-20c0-5.523-4.477-10-10-10s-10 4.477-10 10c0 16.542-13.458 30-30 30zm45.112 202.82-7.733-28.986 19.321-5.155c.001 0 .002 0 .004-.001.002 0 .003-.001.004-.001l19.32-5.154 7.733 28.986z"/><circle cx="115" cy="111" r="10"/><circle cx="255" cy="111" r="10"/><circle cx="395" cy="111" r="10"/></g></g></svg>