<svg id="Layer_1" enable-background="new 0 0 512 512" height="512" viewBox="0 0 512 512" width="512" xmlns="http://www.w3.org/2000/svg"><g><path d="m96 40h320v432h-320z" fill="#e2e0e0"/><path d="m416 432v40h-320v-432h40v332c0 33.14 26.86 60 60 60z" fill="#cecccc"/><path d="m349.27 163.82c0 16.52-6.58 31.33-16.25 44.17l-.01.01c-26.72 35.51-77.01 56-77.01 56s-93.27-38-93.27-100.18c0-20.67 12.33-38.52 30.17-46.83 6.86-3.2 14.52-4.99 22.62-4.99 16.26 0 30.8 7.21 40.48 18.55 9.68-11.34 24.22-18.55 40.48-18.55 29.16 0 52.79 23.2 52.79 51.82z" fill="#f79caf"/><path d="m328.52 213.57c-27.47 32.07-72.52 50.43-72.52 50.43s-93.27-38-93.27-100.18c0-20.67 12.33-38.52 30.17-46.83 3.58-1.67 7.38-2.96 11.34-3.8-2.27 5.78-3.51 12.06-3.51 18.63 0 62.18 93.27 100.18 93.27 100.18s15.87-6.47 34.52-18.43z" fill="#e3889b"/><path d="m464 0c-8.837 0-16 7.164-16 16v8c-15.586 0-361.602 0-384 0v-8c0-8.836-7.163-16-16-16s-16 7.164-16 16v48c0 8.836 7.163 16 16 16s16-7.164 16-16v-8h16v400h-16v-8c0-8.836-7.163-16-16-16s-16 7.164-16 16v48c0 8.836 7.163 16 16 16s16-7.164 16-16v-8h384v8c0 8.836 7.163 16 16 16s16-7.164 16-16v-48c0-8.836-7.163-16-16-16s-16 7.164-16 16v8h-16v-400h16v8c0 8.836 7.163 16 16 16s16-7.164 16-16v-48c0-8.836-7.163-16-16-16zm-64 456h-288v-400h288z"/><path d="m249.963 278.817c3.869 1.576 8.203 1.577 12.074 0 4.215-1.717 103.235-42.888 103.235-114.999 0-55.659-64.331-87.123-109.272-54.844-45.043-32.351-109.272-.717-109.272 54.844 0 72.111 99.02 113.282 103.235 114.999zm-34.44-150.817c10.967 0 21.285 4.717 28.31 12.943 6.384 7.474 17.949 7.475 24.334 0 7.024-8.226 17.343-12.943 28.31-12.943 20.289 0 36.796 16.068 36.796 35.818 0 38.68-50.996 70.452-77.156 82.657-19.037-9.132-77.389-40.58-77.389-82.657 0-19.75 16.506-35.818 36.795-35.818z"/><path d="m344 320h-176c-8.837 0-16 7.164-16 16s7.163 16 16 16h176c8.837 0 16-7.164 16-16s-7.163-16-16-16z"/><path d="m344 384h-176c-8.837 0-16 7.164-16 16s7.163 16 16 16h176c8.837 0 16-7.164 16-16s-7.163-16-16-16z"/></g></svg>