<svg id="Capa_1" enable-background="new 0 0 512 512" height="512" viewBox="0 0 512 512" width="512" xmlns="http://www.w3.org/2000/svg"><g><g><path d="m435.775 149.582-27.021-17.742 25.504-38.843c4.899-7.462 14.92-9.539 22.382-4.64 7.462 4.899 9.539 14.92 4.64 22.382z" fill="#ffe07d"/></g><g><path d="m411.422 232.685-69.242-45.464 35.262-53.704c5.634-8.581 17.158-10.97 25.74-5.336l38.166 25.06c8.581 5.634 10.97 17.158 5.336 25.74z" fill="#a2f4c1"/></g><g><g><path d="m132.76 270.724 163.541-108.435c13.534-8.973 31.124-8.973 44.658 0l163.541 108.435z" fill="#dab46b"/></g><g><path d="m132.76 270.724h286.695l-143.347-95.045z" fill="#cba763"/></g></g><g><path d="m7.5 270.724 163.541-108.435c13.534-8.973 31.124-8.973 44.658 0l163.541 108.435z" fill="#efcb84"/></g><g><path d="m193.37 155.566s45.457 18.183 23.234 54.549c-16.866 27.598-22.677 28.309-23.191 60.61h-185.913l163.541-108.435c6.767-4.487 14.548-6.73 22.329-6.73z" fill="#f1d59d"/></g><g><path d="m7.5 270.724h497v34.346h-497z" fill="#df75a5"/></g><g><path d="m482.276 270.724h22.224v34.346h-22.224z" fill="#dd5790"/></g><g><path d="m7.5 305.07h497v121.22h-497z" fill="#30579d"/></g><g><path d="m482.276 305.07h22.224v121.22h-22.224z" fill="#26457d"/></g><g><path d="m508.643 264.477.001-.004-76.026-50.405 20.328-30.971c3.829-5.824 5.159-12.79 3.745-19.614-1.356-6.547-5.088-12.208-10.539-16.04l21.396-32.587c3.469-5.283 4.673-11.602 3.39-17.791-1.282-6.189-4.898-11.508-10.183-14.977-10.905-7.16-25.605-4.113-32.768 6.793l-21.397 32.588c-11.94-7.31-27.672-3.857-35.42 7.931l-20.092 30.606-5.976-3.962c-16.082-10.678-36.865-10.677-52.941-.002l-36.158 23.97-36.159-23.976c-16.084-10.662-36.866-10.663-52.95 0l-39.1 25.93c-3.452 2.29-4.395 6.944-2.104 10.396 2.289 3.452 6.943 4.394 10.396 2.105l39.099-25.93c11.047-7.324 25.322-7.324 36.371 0l142.803 94.689h-125.989c-4.143 0-7.5 3.358-7.5 7.5s3.357 7.5 7.5 7.5h268.63v19.34h-482v-19.34h178.37c4.143 0 7.5-3.358 7.5-7.5s-3.357-7.5-7.5-7.5h-160.987l74.561-49.439c3.452-2.289 4.396-6.943 2.106-10.396-2.29-3.451-6.943-4.395-10.396-2.106l-95.3 63.19v.002c-2.02 1.344-3.354 3.64-3.354 6.25v155.56c0 4.142 3.357 7.5 7.5 7.5h497c4.143 0 7.5-3.358 7.5-7.5v-53.27c0-4.142-3.357-7.5-7.5-7.5s-7.5 3.358-7.5 7.5v45.77h-482v-106.22h482v25.45c0 4.142 3.357 7.5 7.5 7.5s7.5-3.358 7.5-7.5v-67.29c0-2.61-1.334-4.907-3.357-6.25zm-68.116-167.363c2.621-3.993 8.003-5.108 11.996-2.486 1.935 1.27 3.258 3.217 3.728 5.483s.029 4.578-1.241 6.513l-21.385 32.57-14.483-9.509zm-56.819 40.522c3.358-5.111 10.248-6.542 15.355-3.19l38.167 25.058c2.477 1.628 4.172 4.122 4.772 7.021.601 2.898.036 5.857-1.594 8.335l-20.293 30.917-56.536-37.483zm-114.133 51.375 30.879-20.469c11.041-7.331 25.312-7.331 36.356.003l142.808 94.682h-98.118z"/><circle cx="150.943" cy="216.175" r="8.081"/><circle cx="175.187" cy="237.389" r="8.081"/><circle cx="121.648" cy="237.389" r="8.081"/></g></g></svg>